<?xml version="1.0" standalone="no"?><!DOCTYPE svg PUBLIC "-//W3C//DTD SVG 1.1//EN" "http://www.w3.org/Graphics/SVG/1.1/DTD/svg11.dtd"><svg t="1747205377004" class="icon" viewBox="0 0 1024 1024" version="1.1" xmlns="http://www.w3.org/2000/svg" p-id="4671" xmlns:xlink="http://www.w3.org/1999/xlink" width="200" height="200"><path d="M982.72 777.28l-96-96a32 32 0 0 0-45.44 45.44l41.6 41.28a288 288 0 0 1-253.76-152.32l-126.4-237.44A352 352 0 0 0 192 192H64a32 32 0 0 0 0 64h128a288 288 0 0 1 254.08 152.32l128 237.44A352 352 0 0 0 882.88 832l-41.6 41.28a32 32 0 0 0 45.44 45.44l96-96a32 32 0 0 0 0-45.44z" fill="#000000" p-id="4672"></path><path d="M629.12 408.32A288 288 0 0 1 882.88 256l-41.6 41.28a32 32 0 0 0 45.44 45.44l96-96a32 32 0 0 0 0-45.44l-96-96a32 32 0 0 0-45.44 45.44L882.88 192a352 352 0 0 0-308.8 184.32l36.16 67.52zM446.08 615.68A288 288 0 0 1 192 768H64a32 32 0 0 0 0 64h128a352 352 0 0 0 309.12-184.32l-36.16-67.52z" fill="#000000" p-id="4673"></path></svg>